<mxfile host="app.diagrams.net" modified="2024-06-06T14:47:53.582Z" agent="Mozilla/5.0 (Windows NT 10.0; Win64; x64) AppleWebKit/537.36 (KHTML, like Gecko) Chrome/125.0.0.0 Safari/537.36" etag="FfYsw9Z-iXwZtkyiVY37" version="24.3.1" type="github">
  <diagram name="PÃ¡gina-1" id="i_zveU26tJmLkz8iWcnO">
    <mxGraphModel dx="1050" dy="522" grid="1" gridSize="10" guides="1" tooltips="1" connect="1" arrows="1" fold="1" page="1" pageScale="1" pageWidth="827" pageHeight="1169" math="0" shadow="0">
      <root>
        <mxCell id="0" />
        <mxCell id="1" parent="0" />
        <mxCell id="ijgL-AuHPJLLjh7tUasi-5" value="" style="edgeStyle=orthogonalEdgeStyle;rounded=0;orthogonalLoop=1;jettySize=auto;html=1;" edge="1" parent="1" source="ijgL-AuHPJLLjh7tUasi-1" target="ijgL-AuHPJLLjh7tUasi-3">
          <mxGeometry relative="1" as="geometry" />
        </mxCell>
        <mxCell id="ijgL-AuHPJLLjh7tUasi-1" value="Novo MS Info Vendedor" style="rounded=1;whiteSpace=wrap;html=1;" vertex="1" parent="1">
          <mxGeometry x="350" y="130" width="120" height="60" as="geometry" />
        </mxCell>
        <mxCell id="ijgL-AuHPJLLjh7tUasi-4" style="edgeStyle=orthogonalEdgeStyle;rounded=0;orthogonalLoop=1;jettySize=auto;html=1;entryX=0.5;entryY=0;entryDx=0;entryDy=0;" edge="1" parent="1" source="ijgL-AuHPJLLjh7tUasi-2" target="ijgL-AuHPJLLjh7tUasi-1">
          <mxGeometry relative="1" as="geometry" />
        </mxCell>
        <mxCell id="ijgL-AuHPJLLjh7tUasi-2" value="&lt;div style=&quot;text-align: center;&quot;&gt;&lt;span style=&quot;background-color: initial;&quot;&gt;Request&lt;/span&gt;&lt;/div&gt;&lt;ul&gt;&lt;li&gt;Operator ID&lt;/li&gt;&lt;li&gt;ID Proposta NETSales&lt;/li&gt;&lt;/ul&gt;" style="rounded=1;whiteSpace=wrap;html=1;align=left;" vertex="1" parent="1">
          <mxGeometry x="325" y="20" width="170" height="70" as="geometry" />
        </mxCell>
        <mxCell id="ijgL-AuHPJLLjh7tUasi-3" value="&lt;div style=&quot;text-align: center;&quot;&gt;&lt;span style=&quot;background-color: initial;&quot;&gt;Response&lt;/span&gt;&lt;/div&gt;&lt;ul&gt;&lt;li&gt;&lt;span style=&quot;background-color: initial;&quot;&gt;Login NETSales Vendedor&lt;/span&gt;&lt;/li&gt;&lt;li&gt;&lt;span style=&quot;background-color: initial;&quot;&gt;Nome Vendedor&lt;/span&gt;&lt;/li&gt;&lt;li&gt;&lt;span style=&quot;background-color: initial;&quot;&gt;Canal de Vendas Vendedor&lt;/span&gt;&lt;/li&gt;&lt;/ul&gt;" style="rounded=1;whiteSpace=wrap;html=1;align=left;" vertex="1" parent="1">
          <mxGeometry x="300" y="230" width="220" height="90" as="geometry" />
        </mxCell>
      </root>
    </mxGraphModel>
  </diagram>
</mxfile>
